<?xml version="1.0" encoding="UTF-8"?>
<svg id="Layer_1" data-name="Layer 1" xmlns="http://www.w3.org/2000/svg" width="24" height="23.4" viewBox="0 0 24 23.4">
  <defs>
    <style>
      .cls-1 {
        fill: #6e5494;
      }
    </style>
  </defs>
  <path class="cls-1" d="M8.03,18.84c0,.1-.11.17-.25.17-.16.01-.27-.06-.27-.17,0-.1.11-.17.25-.17.15-.01.27.06.27.17ZM6.52,18.62c-.03.1.06.21.21.24.13.05.27,0,.3-.1s-.06-.21-.21-.25c-.13-.03-.27.01-.3.11ZM8.66,18.54c-.14.03-.24.13-.22.24.01.1.14.16.29.13.14-.03.24-.13.22-.22-.01-.09-.15-.15-.29-.14ZM11.85,0C5.13,0,0,5.1,0,11.81c0,5.37,3.38,9.96,8.2,11.57.62.11.84-.27.84-.59s-.01-1.95-.01-2.97c0,0-3.39.73-4.1-1.44,0,0-.55-1.41-1.35-1.77,0,0-1.11-.76.08-.75,0,0,1.2.1,1.87,1.25,1.06,1.87,2.84,1.33,3.53,1.01.11-.77.43-1.31.77-1.63-2.7-.3-5.43-.69-5.43-5.35,0-1.33.37-2,1.14-2.85-.13-.31-.54-1.61.13-3.29,1.01-.31,3.34,1.31,3.34,1.31.97-.27,2.01-.41,3.04-.41s2.07.14,3.04.41c0,0,2.33-1.63,3.34-1.31.66,1.68.25,2.97.13,3.29.77.86,1.25,1.52,1.25,2.85,0,4.67-2.85,5.04-5.55,5.35.45.38.82,1.11.82,2.25,0,1.63-.01,3.65-.01,4.05,0,.31.22.7.84.59,4.84-1.61,8.12-6.2,8.12-11.56C24,5.1,18.56,0,11.85,0ZM4.7,16.69c-.06.05-.05.16.03.25.08.08.19.11.25.05.06-.05.05-.16-.03-.25-.08-.08-.19-.11-.25-.05ZM4.18,16.3c-.03.06.01.14.11.19.08.05.17.03.21-.03.03-.06-.01-.14-.11-.19-.1-.03-.17-.01-.21.03ZM5.75,18.02c-.08.06-.05.21.06.3.11.11.25.13.31.05.06-.06.03-.21-.06-.3-.11-.11-.25-.13-.31-.05ZM5.2,17.31c-.08.05-.08.17,0,.29s.21.16.27.11c.08-.06.08-.19,0-.3-.07-.11-.19-.16-.27-.1Z"/>
</svg>