<?xml version="1.0" encoding="UTF-8"?>
<svg id="Layer_1" data-name="Layer 1" xmlns="http://www.w3.org/2000/svg" width="16.33" height="23.53" viewBox="0 0 16.33 23.53">
  <defs>
    <style>
      .cls-1 {
        fill: #bc3421;
      }
    </style>
  </defs>
  <path class="cls-1" d="M8.16,23.53c-.06-.09-.08-.2-.09-.31-.13-.8-.16-1.61-.33-2.42-.71-3.57-2.85-6.87-7.06-8.47-.17-.07-.48-.13-.62-.21-.03-.01-.06-.02-.06-.05.18-1.59.3-3.19.49-4.79.09-.78.18-1.56.34-2.33.06.03.07.12.09.18.23.83.28,1.81.43,2.67.17.99.37,1.98.78,2.93l.95-.26c.35-.87.53-1.78.69-2.69.32-1.83.47-3.69.76-5.52.04,0,.04.08.05.11.02.11.04.24.05.35.22,1.68.35,3.38.62,5.06.12.76.25,1.55.53,2.28l.95-.06s.04-.01.06-.03c.05-.06.16-.43.19-.52.86-2.79.75-5.9,1.07-8.75C8.04.64,8.12,0,8.17,0c.1.31.13.64.16.96.19,1.91.24,3.82.49,5.73.15,1.12.34,2.24.74,3.32l1.01.06c.29-.8.42-1.63.55-2.46.24-1.56.37-3.14.57-4.7.02-.17.04-.38.08-.55,0-.02,0-.07.05-.07.29,1.83.44,3.67.76,5.5.16.9.33,1.83.69,2.69l.94.26c.43-.99.63-2.04.81-3.08.12-.71.19-1.43.33-2.14.03-.15.06-.34.12-.48.01-.03,0-.06.05-.07.15.71.23,1.42.32,2.14.2,1.66.33,3.32.51,4.98l-.04.05c-4.11,1.28-6.56,4.35-7.47,7.72-.31,1.15-.37,2.21-.55,3.36-.02.11-.03.23-.09.33h-.02Z"/>
</svg>